<?xml version="1.0" encoding="UTF-8" standalone="no"?>
<svg
   xmlns:dc="http://purl.org/dc/elements/1.1/"
   xmlns:cc="http://creativecommons.org/ns#"
   xmlns:rdf="http://www.w3.org/1999/02/22-rdf-syntax-ns#"
   xmlns:svg="http://www.w3.org/2000/svg"
   xmlns="http://www.w3.org/2000/svg"
   xmlns:sodipodi="http://sodipodi.sourceforge.net/DTD/sodipodi-0.dtd"
   xmlns:inkscape="http://www.inkscape.org/namespaces/inkscape"
   inkscape:version="1.0 (4035a4f, 2020-05-01)"
   sodipodi:docname="IPA_logo.svg"
   id="svg17"
   preserveAspectRatio="xMidYMid meet"
   viewBox="0 0 7763.5126 4368.4158"
   height="436.84158"
   width="776.35126"
   version="1.0">
  <metadata
     id="metadata23">
    <rdf:RDF>
      <cc:Work
         rdf:about="">
        <dc:format>image/svg+xml</dc:format>
        <dc:type
           rdf:resource="http://purl.org/dc/dcmitype/StillImage" />
        <dc:title></dc:title>
      </cc:Work>
    </rdf:RDF>
  </metadata>
  <defs
     id="defs21" />
  <sodipodi:namedview
     inkscape:current-layer="svg17"
     inkscape:window-maximized="0"
     inkscape:window-y="23"
     inkscape:window-x="0"
     inkscape:cy="223.77133"
     inkscape:cx="473.22683"
     inkscape:zoom="0.40563633"
     fit-margin-bottom="0"
     fit-margin-right="0"
     fit-margin-left="0"
     fit-margin-top="0"
     showgrid="false"
     id="namedview19"
     inkscape:window-height="480"
     inkscape:window-width="741"
     inkscape:pageshadow="2"
     inkscape:pageopacity="0"
     guidetolerance="10"
     gridtolerance="10"
     objecttolerance="10"
     borderopacity="1"
     bordercolor="#666666"
     pagecolor="#ffffff" />
  <g
     transform="translate(-800.6813,-2511.3685)"
     stroke="none"
     fill="#e7380d"
     id="layer101">
    <path
       id="path10"
       d="m 1023,6860 c -75,-30 -146,-98 -185,-178 l -33,-67 -3,-1894 c -3,-2105 -7,-1952 64,-2058 152,-223 494,-192 616,55 l 23,47 v 1935 1935 l -28,53 c -35,67 -92,124 -159,159 -73,37 -217,44 -295,13 z" />
    <path
       id="path12"
       d="m 2480,6871 c -92,-30 -172,-97 -217,-183 l -28,-53 V 5250 c 0,-1311 1,-1390 19,-1470 103,-475 387,-858 803,-1082 186,-100 388,-160 609,-180 722,-65 1396,379 1628,1073 102,305 102,683 1,987 -183,546 -632,941 -1198,1054 -98,20 -143,22 -372,23 h -260 l -62,-29 c -76,-35 -144,-104 -180,-183 -21,-46 -26,-72 -27,-139 0,-75 3,-88 37,-158 40,-80 84,-124 167,-167 42,-22 60,-24 285,-30 276,-8 340,-20 490,-93 222,-107 387,-306 457,-551 32,-114 32,-325 1,-437 -45,-156 -115,-277 -225,-387 -400,-402 -1054,-319 -1350,170 -38,63 -66,130 -96,229 -15,50 -17,185 -22,1395 l -5,1340 -27,57 c -35,75 -94,138 -165,174 -50,25 -71,29 -148,31 -49,1 -101,-1 -115,-6 z" />
    <path
       id="path14"
       d="m 5438,6867 c -104,-39 -162,-92 -210,-192 -24,-51 -28,-73 -28,-142 v -82 l 629,-1825 c 346,-1004 640,-1847 653,-1873 13,-27 48,-73 79,-104 179,-182 463,-184 645,-3 29,28 64,74 78,103 15,28 309,867 653,1864 l 627,1812 v 105 c 1,96 -1,109 -27,158 -36,68 -92,124 -159,158 -75,39 -208,45 -290,14 -70,-26 -145,-91 -180,-157 -14,-26 -82,-212 -151,-413 -69,-201 -129,-373 -132,-382 -6,-16 -45,-17 -478,-20 l -472,-3 -61,-28 c -77,-36 -145,-104 -181,-182 -23,-51 -28,-73 -28,-145 0,-77 3,-92 33,-152 40,-81 111,-149 188,-177 51,-20 76,-21 399,-21 190,0 345,-3 345,-7 0,-12 -484,-1413 -486,-1410 -2,2 -228,657 -504,1457 -275,799 -511,1473 -525,1496 -30,51 -92,106 -154,136 -57,28 -204,36 -263,15 z" />
  </g>
</svg>
